<svg width="1200" height="390" viewBox="0 0 1200 390" fill="none" xmlns="http://www.w3.org/2000/svg">
<defs><linearGradient id="bg" x1="0" y1="0" x2="1" y2="1"><stop stop-color="#070B18"/><stop offset="1" stop-color="#0B1020"/></linearGradient><linearGradient id="g" x1="0" x2="1"><stop stop-color="#00F5FF"/><stop offset="1" stop-color="#A855F7"/></linearGradient><style>.h{font:800 34px Arial;fill:#fff}.card{fill:#111827;stroke:#26334D}.t{font:800 22px Arial;fill:#00F5FF}.p{font:400 17px Arial;fill:#d1d5db}.tag{font:700 13px Arial;fill:#fff}.pill{fill:#0B1020;stroke:#334155}</style></defs>
<rect width="1200" height="390" rx="26" fill="url(#bg)"/><rect x="1" y="1" width="1198" height="388" rx="26" stroke="#26334D"/>
<text x="45" y="62" class="h">🚀 Featured Projects</text><rect x="45" y="85" width="1080" height="3" fill="url(#g)"/>
<g transform="translate(45 120)"><rect class="card" width="255" height="210" rx="18"/><text x="22" y="45" class="t">🏥 HMS SaaS</text><text x="22" y="85" class="p">IPD-first Hospital</text><text x="22" y="112" class="p">Management System with</text><text x="22" y="139" class="p">multi-tenant architecture.</text><rect class="pill" x="20" y="165" width="65" height="28" rx="8"/><text x="32" y="184" class="tag">NestJS</text><rect class="pill" x="95" y="165" width="62" height="28" rx="8"/><text x="107" y="184" class="tag">Next</text><rect class="pill" x="167" y="165" width="62" height="28" rx="8"/><text x="180" y="184" class="tag">MySQL</text></g>
<g transform="translate(325 120)"><rect class="card" width="255" height="210" rx="18"/><text x="22" y="45" class="t">🧾 Laravel API</text><text x="22" y="85" class="p">Production-ready REST</text><text x="22" y="112" class="p">API boilerplate with auth</text><text x="22" y="139" class="p">and role management.</text><rect class="pill" x="20" y="165" width="75" height="28" rx="8"/><text x="32" y="184" class="tag">Laravel</text><rect class="pill" x="105" y="165" width="55" height="28" rx="8"/><text x="119" y="184" class="tag">PHP</text><rect class="pill" x="170" y="165" width="62" height="28" rx="8"/><text x="183" y="184" class="tag">MySQL</text></g>
<g transform="translate(605 120)"><rect class="card" width="255" height="210" rx="18"/><text x="22" y="45" class="t">🏗️ Multi-Tenant</text><text x="22" y="85" class="p">Database-per-tenant</text><text x="22" y="112" class="p">SaaS architecture for</text><text x="22" y="139" class="p">scalable platforms.</text><rect class="pill" x="20" y="165" width="75" height="28" rx="8"/><text x="32" y="184" class="tag">Laravel</text><rect class="pill" x="105" y="165" width="55" height="28" rx="8"/><text x="119" y="184" class="tag">Vue</text><rect class="pill" x="170" y="165" width="62" height="28" rx="8"/><text x="183" y="184" class="tag">MySQL</text></g>
<g transform="translate(885 120)"><rect class="card" width="255" height="210" rx="18"/><text x="22" y="45" class="t">🌐 Portfolio</text><text x="22" y="85" class="p">Personal portfolio website</text><text x="22" y="112" class="p">for projects, skills and</text><text x="22" y="139" class="p">professional branding.</text><rect class="pill" x="20" y="165" width="65" height="28" rx="8"/><text x="32" y="184" class="tag">Next</text><rect class="pill" x="95" y="165" width="85" height="28" rx="8"/><text x="107" y="184" class="tag">Tailwind</text></g>
</svg>
